<?xml version="1.0" encoding="UTF-8"?>
<svg xmlns="http://www.w3.org/2000/svg" xmlns:xlink="http://www.w3.org/1999/xlink" viewBox="0 0 26 26" width="26px" height="26px">
<g id="surface4381183">
<path style=" stroke:none;fill-rule:nonzero;fill:rgb(59.607846%,58.039218%,58.039218%);fill-opacity:1;" d="M 21.734375 19.640625 L 19.636719 21.734375 C 19.253906 22.121094 18.628906 22.121094 18.242188 21.734375 L 13 16.496094 L 7.761719 21.734375 C 7.375 22.121094 6.746094 22.121094 6.363281 21.734375 L 4.265625 19.640625 C 3.878906 19.253906 3.878906 18.628906 4.265625 18.242188 L 9.503906 13 L 4.265625 7.761719 C 3.882812 7.371094 3.882812 6.742188 4.265625 6.363281 L 6.363281 4.265625 C 6.746094 3.878906 7.375 3.878906 7.761719 4.265625 L 13 9.507812 L 18.242188 4.265625 C 18.628906 3.878906 19.257812 3.878906 19.636719 4.265625 L 21.734375 6.359375 C 22.121094 6.746094 22.121094 7.375 21.738281 7.761719 L 16.496094 13 L 21.734375 18.242188 C 22.121094 18.628906 22.121094 19.253906 21.734375 19.640625 Z M 21.734375 19.640625 "/>
</g>
</svg>
